<?xml version="1.0" encoding="UTF-8"?>
<!DOCTYPE svg PUBLIC "-//W3C//DTD SVG 1.1//EN" "http://www.w3.org/Graphics/SVG/1.1/DTD/svg11.dtd">
<svg version="1.1" xmlns="http://www.w3.org/2000/svg" xmlns:xlink="http://www.w3.org/1999/xlink" x="0" y="0" width="256" height="160" viewBox="0, 0, 256, 160">
  <g id="Layer_1">
    <path d="M58.474,-0.038 L58.474,160.038 L0,160.038 L0,-0.038 L58.474,-0.038 z M43.588,25.139 L13.553,25.139 L13.553,117.668 L43.943,117.668 L43.943,110.396 L21.772,110.396 L21.772,74.33 L41.637,74.33 L41.637,66.94 L21.772,66.94 L21.772,32.412 L43.588,32.412 L43.588,25.139 z" fill="#000000"/>
    <path d="M190.158,11.395 L190.158,160.038 L131.685,160.038 L131.685,11.395 L190.158,11.395 z M163.493,25.139 L142.327,25.139 L142.327,117.668 L163.493,117.668 Q170.824,117.668 175.643,112.968 Q180.462,108.268 180.462,100.936 L180.462,41.872 Q180.462,34.54 175.672,29.84 Q170.883,25.139 163.493,25.139 z M161.956,32.412 Q166.508,32.412 169.376,35.22 Q172.243,38.029 172.243,42.581 L172.243,100.109 Q172.243,104.898 169.258,107.647 Q166.272,110.396 161.483,110.396 L150.545,110.396 L150.545,32.412 L161.956,32.412 z" fill="#000000"/>
    <path d="M256,160.038 L197.528,160.038 L197.528,125.737 L256,125.737 z" fill="#000000"/>
    <path d="M244.914,111.106 Q244.914,114.003 243.081,115.836 Q241.248,117.668 238.351,117.668 L214.524,117.668 Q211.627,117.668 209.794,115.836 Q207.961,114.003 207.961,111.106 L207.961,87.633 L216.18,87.633 L216.18,110.396 L236.637,110.396 L236.637,82.076 L220.318,69.837 L220.318,68.004 L236.518,55.943 L236.518,32.412 L216.298,32.412 L216.298,53.223 L208.08,53.223 L208.08,31.702 Q208.08,28.805 209.913,26.972 Q211.745,25.139 214.642,25.139 L238.233,25.139 Q241.13,25.139 242.963,26.972 Q244.796,28.805 244.796,31.702 L244.796,54.228 Q244.796,58.663 241.248,61.146 L230.251,68.891 L241.366,76.636 Q244.914,79.06 244.914,83.672 z" fill="#000000"/>
    <path d="M124.318,160.038 L65.841,160.038 L65.841,137.169 L124.318,137.169 z" fill="#000000"/>
    <path d="M112.607,117.668 L75.891,117.668 L75.891,113.293 L104.212,54.465 L104.212,32.412 L85.351,32.412 L85.351,53.223 L77.074,53.223 L77.074,31.702 Q77.074,28.805 78.907,26.972 Q80.74,25.139 83.637,25.139 L105.926,25.139 Q108.823,25.139 110.656,26.972 Q112.489,28.805 112.489,31.702 L112.489,51.331 Q112.489,54.879 110.302,59.431 L85.824,110.396 L112.607,110.396 z" fill="#000000"/>
  </g>
</svg>
